<svg width="10" height="13" viewBox="0 0 10 13" fill="none" xmlns="http://www.w3.org/2000/svg">
<path d="M9.04527 0.333008C8.30227 0.333008 7.69369 0.795166 7.26417 1.37826C6.93679 1.82268 6.69967 2.3623 6.60446 2.94427C5.06635 3.30332 4.82239 4.83729 4.69822 5.6248L4.67635 5.75964C4.49596 6.86607 3.78211 9.61991 1.08864 11.2704C1.07868 11.2754 0.136066 11.7764 0.371822 12.5098C0.401058 12.6017 0.450463 12.6838 0.5164 12.7535C0.733495 12.9809 1.03208 12.9997 1.37172 12.9997C5.26014 12.9997 9.35754 10.3598 9.66732 5.2735C9.66732 3.95515 8.84028 3.16863 7.88743 2.9418C7.96719 2.64729 8.09465 2.36279 8.26042 2.13776C8.5307 1.77085 8.8552 1.59967 9.04527 1.59967V0.333008Z" fill="white"/>
</svg>
