<?xml version="1.0" encoding="utf-8"?>
<!-- Generator: Adobe Illustrator 27.3.1, SVG Export Plug-In . SVG Version: 6.00 Build 0)  -->
<svg version="1.1" id="Layer_1" xmlns="http://www.w3.org/2000/svg" xmlns:xlink="http://www.w3.org/1999/xlink" x="0px" y="0px"
	 viewBox="0 0 12 11.7" style="enable-background:new 0 0 12 11.7;" xml:space="preserve">
<style type="text/css">
	.st0{fill:#FFFFFF;}
</style>
<g>
	<path class="st0" d="M2.9,0.3c1.5,0,2.6,1,3.1,2.3C6,2.7,6,2.6,6,2.6c0.3-0.9,1-1.7,1.9-2.1C10-0.4,12.3,1.7,12,3.9
		c-0.4,2-2,3.5-3.3,5C7.8,9.6,6.9,10.4,6,11.1c-0.1,0-0.1,0-0.1,0c-0.6-0.5-1.1-0.9-1.7-1.4C2.5,7.9,0.3,6.1,0,3.5
		C-0.1,1.9,1.2,0.3,2.9,0.3z"/>
</g>
</svg>
